{
    "asset" : {
        "generator" : "Khronos glTF Blender I/O v1.5.17",
        "version" : "2.0"
    },
    "scene" : 0,
    "scenes" : [
        {
            "name" : "Scene",
            "nodes" : [
                0,
                1,
                2,
                3,
                4
            ]
        }
    ],
    "nodes" : [
        {
            "mesh" : 0,
            "name" : "U",
            "rotation" : [
                0.7071068286895752,
                0,
                0,
                0.7071068286895752
            ],
            "scale" : [
                2.7630722522735596,
                2.7630722522735596,
                2.7630722522735596
            ],
            "translation" : [
                0.4671618938446045,
                0.45099812746047974,
                0
            ]
        },
        {
            "mesh" : 1,
            "name" : "O",
            "rotation" : [
                0.7071068286895752,
                0,
                0,
                0.7071068286895752
            ],
            "scale" : [
                2.7630722522735596,
                2.7630722522735596,
                2.7630722522735596
            ],
            "translation" : [
                -0.675979495048523,
                0.5360894799232483,
                0
            ]
        },
        {
            "mesh" : 2,
            "name" : "L",
            "rotation" : [
                0.7071068286895752,
                0,
                0,
                0.7071068286895752
            ],
            "scale" : [
                2.7630722522735596,
                2.7630722522735596,
                2.7630722522735596
            ],
            "translation" : [
                -1.8872185945510864,
                0.5997329354286194,
                0
            ]
        },
        {
            "mesh" : 3,
            "name" : "I",
            "rotation" : [
                0.7071068286895752,
                0,
                0,
                0.7071068286895752
            ],
            "scale" : [
                2.7630722522735596,
                2.7630722522735596,
                2.7630722522735596
            ],
            "translation" : [
                1.4157958030700684,
                0.7824080586433411,
                0
            ]
        },
        {
            "mesh" : 4,
            "name" : "S",
            "rotation" : [
                0.7071068286895752,
                0,
                0,
                0.7071068286895752
            ],
            "scale" : [
                2.7630722522735596,
                2.7630722522735596,
                2.7630722522735596
            ],
            "translation" : [
                2.211505889892578,
                0.5114381909370422,
                0
            ]
        }
    ],
    "materials" : [
        {
            "doubleSided" : true,
            "name" : "Material.001",
            "pbrMetallicRoughness" : {
                "metallicFactor" : 0,
                "roughnessFactor" : 0.5
            }
        }
    ],
    "meshes" : [
        {
            "name" : "Text.004",
            "primitives" : [
                {
                    "attributes" : {
                        "POSITION" : 0,
                        "NORMAL" : 1,
                        "TEXCOORD_0" : 2
                    },
                    "indices" : 3,
                    "material" : 0
                }
            ]
        },
        {
            "name" : "Text.005",
            "primitives" : [
                {
                    "attributes" : {
                        "POSITION" : 4,
                        "NORMAL" : 5,
                        "TEXCOORD_0" : 6
                    },
                    "indices" : 7,
                    "material" : 0
                }
            ]
        },
        {
            "name" : "Text.013",
            "primitives" : [
                {
                    "attributes" : {
                        "POSITION" : 8,
                        "NORMAL" : 9,
                        "TEXCOORD_0" : 10
                    },
                    "indices" : 11,
                    "material" : 0
                }
            ]
        },
        {
            "name" : "Text.017",
            "primitives" : [
                {
                    "attributes" : {
                        "POSITION" : 12,
                        "NORMAL" : 13,
                        "TEXCOORD_0" : 14
                    },
                    "indices" : 15,
                    "material" : 0
                }
            ]
        },
        {
            "name" : "Text.019",
            "primitives" : [
                {
                    "attributes" : {
                        "POSITION" : 16,
                        "NORMAL" : 17,
                        "TEXCOORD_0" : 18
                    },
                    "indices" : 19,
                    "material" : 0
                }
            ]
        }
    ],
    "accessors" : [
        {
            "bufferView" : 0,
            "componentType" : 5126,
            "count" : 2089,
            "max" : [
                0.22337496280670166,
                0.05999999865889549,
                0.16434676945209503
            ],
            "min" : [
                -0.2001965045928955,
                -0.05999999865889549,
                -0.22422465682029724
            ],
            "type" : "VEC3"
        },
        {
            "bufferView" : 1,
            "componentType" : 5126,
            "count" : 2089,
            "type" : "VEC3"
        },
        {
            "bufferView" : 2,
            "componentType" : 5126,
            "count" : 2089,
            "type" : "VEC2"
        },
        {
            "bufferView" : 3,
            "componentType" : 5123,
            "count" : 3828,
            "type" : "SCALAR"
        },
        {
            "bufferView" : 4,
            "componentType" : 5126,
            "count" : 1453,
            "max" : [
                0.18352466821670532,
                0.05999999865889549,
                0.1951426863670349
            ],
            "min" : [
                -0.18361827731132507,
                -0.05999999865889549,
                -0.19557158648967743
            ],
            "type" : "VEC3"
        },
        {
            "bufferView" : 5,
            "componentType" : 5126,
            "count" : 1453,
            "type" : "VEC3"
        },
        {
            "bufferView" : 6,
            "componentType" : 5126,
            "count" : 1453,
            "type" : "VEC2"
        },
        {
            "bufferView" : 7,
            "componentType" : 5123,
            "count" : 2880,
            "type" : "SCALAR"
        },
        {
            "bufferView" : 8,
            "componentType" : 5126,
            "count" : 2058,
            "max" : [
                0.2190343588590622,
                0.05999999865889549,
                0.20817625522613525
            ],
            "min" : [
                -0.19453713297843933,
                -0.05999999865889549,
                -0.29753804206848145
            ],
            "type" : "VEC3"
        },
        {
            "bufferView" : 9,
            "componentType" : 5126,
            "count" : 2058,
            "type" : "VEC3"
        },
        {
            "bufferView" : 10,
            "componentType" : 5126,
            "count" : 2058,
            "type" : "VEC2"
        },
        {
            "bufferView" : 11,
            "componentType" : 5123,
            "count" : 3960,
            "type" : "SCALAR"
        },
        {
            "bufferView" : 12,
            "componentType" : 5126,
            "count" : 1410,
            "max" : [
                0.11647772789001465,
                0.05999999865889549,
                0.27804693579673767
            ],
            "min" : [
                -0.09209370613098145,
                -0.05999999865889549,
                -0.28052446246147156
            ],
            "type" : "VEC3"
        },
        {
            "bufferView" : 13,
            "componentType" : 5126,
            "count" : 1410,
            "type" : "VEC3"
        },
        {
            "bufferView" : 14,
            "componentType" : 5126,
            "count" : 1410,
            "type" : "VEC2"
        },
        {
            "bufferView" : 15,
            "componentType" : 5123,
            "count" : 3060,
            "type" : "SCALAR"
        },
        {
            "bufferView" : 16,
            "componentType" : 5126,
            "count" : 3082,
            "max" : [
                0.15635478496551514,
                0.05999999865889549,
                0.1862209588289261
            ],
            "min" : [
                -0.13150227069854736,
                -0.05999999865889549,
                -0.20449331402778625
            ],
            "type" : "VEC3"
        },
        {
            "bufferView" : 17,
            "componentType" : 5126,
            "count" : 3082,
            "type" : "VEC3"
        },
        {
            "bufferView" : 18,
            "componentType" : 5126,
            "count" : 3082,
            "type" : "VEC2"
        },
        {
            "bufferView" : 19,
            "componentType" : 5123,
            "count" : 5652,
            "type" : "SCALAR"
        }
    ],
    "bufferViews" : [
        {
            "buffer" : 0,
            "byteLength" : 25068,
            "byteOffset" : 0
        },
        {
            "buffer" : 0,
            "byteLength" : 25068,
            "byteOffset" : 25068
        },
        {
            "buffer" : 0,
            "byteLength" : 16712,
            "byteOffset" : 50136
        },
        {
            "buffer" : 0,
            "byteLength" : 7656,
            "byteOffset" : 66848
        },
        {
            "buffer" : 0,
            "byteLength" : 17436,
            "byteOffset" : 74504
        },
        {
            "buffer" : 0,
            "byteLength" : 17436,
            "byteOffset" : 91940
        },
        {
            "buffer" : 0,
            "byteLength" : 11624,
            "byteOffset" : 109376
        },
        {
            "buffer" : 0,
            "byteLength" : 5760,
            "byteOffset" : 121000
        },
        {
            "buffer" : 0,
            "byteLength" : 24696,
            "byteOffset" : 126760
        },
        {
            "buffer" : 0,
            "byteLength" : 24696,
            "byteOffset" : 151456
        },
        {
            "buffer" : 0,
            "byteLength" : 16464,
            "byteOffset" : 176152
        },
        {
            "buffer" : 0,
            "byteLength" : 7920,
            "byteOffset" : 192616
        },
        {
            "buffer" : 0,
            "byteLength" : 16920,
            "byteOffset" : 200536
        },
        {
            "buffer" : 0,
            "byteLength" : 16920,
            "byteOffset" : 217456
        },
        {
            "buffer" : 0,
            "byteLength" : 11280,
            "byteOffset" : 234376
        },
        {
            "buffer" : 0,
            "byteLength" : 6120,
            "byteOffset" : 245656
        },
        {
            "buffer" : 0,
            "byteLength" : 36984,
            "byteOffset" : 251776
        },
        {
            "buffer" : 0,
            "byteLength" : 36984,
            "byteOffset" : 288760
        },
        {
            "buffer" : 0,
            "byteLength" : 24656,
            "byteOffset" : 325744
        },
        {
            "buffer" : 0,
            "byteLength" : 11304,
            "byteOffset" : 350400
        }
    ],
    "buffers" : [
        {
            "byteLength" : 361704,
            "uri" : "data:application/octet-stream;base64,"
        }
    ]
}
