<svg width="60" height="60" fill="none" xmlns="http://www.w3.org/2000/svg">
  <g clip-path="url(#clip0)">
    <path fill-rule="evenodd" clip-rule="evenodd" d="M30 0c16.6 0 30 13.8 30 30.8 0 13.5-8.6 25-20.5 29.1-1.5.3-2-.6-2-1.4V50c0-2.8-1-4.7-2-5.7C42 43.6 49 41 49 29.2a12 12 0 00-3-8.3c.3-.8 1.3-4-.3-8.1 0 0-2.6-.9-8.3 3.1a28.2 28.2 0 00-15 0c-5.7-4-8.3-3.1-8.3-3.1-1.6 4.2-.6 7.3-.3 8.1a12 12 0 00-3 8.3c0 11.7 7 14.4 13.6 15.2-.8.7-1.6 2-1.9 4-1.7.9-6 2.2-8.7-2.5 0 0-1.6-3-4.6-3.2 0 0-3 0-.2 2 0 0 2 .9 3.3 4.4 0 0 1.8 5.5 10.1 3.6v5.8c0 .8-.5 1.7-2 1.4C8.5 56 0 44.3 0 30.8 0 13.8 13.4 0 30 0z" fill="#fff"/>
  </g>
  <defs>
    <clipPath id="clip0">
      <path fill="#fff" d="M0 0h60v60H0z"/>
    </clipPath>
  </defs>
</svg>
