<svg width="61" height="61" fill="none" xmlns="http://www.w3.org/2000/svg">
  <path d="M30.6.6a30 30 0 100 60 30 30 0 000-60zm0 57a27 27 0 110-54.1 27 27 0 010 54.1z" fill="#fff"/>
  <path d="M22.6 24.6h-7v18.3h7V24.6zM19 21.6c2 0 3.6-1.4 3.6-3.2 0-1.8-1.6-3.3-3.6-3.3s-3.6 1.5-3.6 3.3c0 1.8 1.6 3.2 3.6 3.2zM40.3 24.1c-1.5 0-2.7.3-3.7.8-1 .6-2 1.4-3 2.6v-3h-6.5V43h7v-8.8c0-1.7.3-2.8.8-3.5.5-.6 1.2-1 2-1 .9 0 1.5.3 1.9.8.4.5.6 1.3.6 2.4V43h7.1V31.2c0-2.4-.6-4.2-1.7-5.3a6 6 0 00-4.5-1.8z" fill="#fff"/>
</svg>
