{
    "asset" : {
        "generator" : "Khronos glTF Blender I/O v1.5.17",
        "version" : "2.0"
    },
    "scene" : 0,
    "scenes" : [
        {
            "name" : "Scene",
            "nodes" : [
                0,
                1,
                2,
                3,
                4
            ]
        }
    ],
    "nodes" : [
        {
            "name" : "Light",
            "rotation" : [
                0.16907575726509094,
                0.7558803558349609,
                -0.27217137813568115,
                0.570947527885437
            ],
            "translation" : [
                4.076245307922363,
                5.903861999511719,
                -1.0054539442062378
            ]
        },
        {
            "name" : "Area",
            "rotation" : [
                0.41114652156829834,
                0.018343485891819,
                0.12392847239971161,
                0.902919590473175
            ],
            "scale" : [
                2.257070779800415,
                2.257070779800415,
                2.257070779800415
            ],
            "translation" : [
                -0.9590739011764526,
                3.089045524597168,
                3.449031352996826
            ]
        },
        {
            "name" : "Camera.001",
            "translation" : [
                0,
                1.6999934911727905,
                0
            ]
        },
        {
            "name" : "Area.001",
            "rotation" : [
                -0.4905688166618347,
                -0.11145807057619095,
                0.13499058783054352,
                0.8536374568939209
            ],
            "scale" : [
                2.257070779800415,
                2.257070779800415,
                2.257070779800415
            ],
            "translation" : [
                -0.7367126941680908,
                3.4019665718078613,
                -5.706267833709717
            ]
        },
        {
            "mesh" : 0,
            "name" : "PortraitCoin.001",
            "rotation" : [
                0.7071068286895752,
                0,
                0,
                0.7071068286895752
            ]
        }
    ],
    "materials" : [
        {
            "doubleSided" : true,
            "name" : "Material.010",
            "normalTexture" : {
                "index" : 0,
                "scale" : 10
            },
            "pbrMetallicRoughness" : {
                "baseColorFactor" : [
                    0.01398494467139244,
                    0.13916760683059692,
                    0.8000000715255737,
                    1
                ],
                "metallicFactor" : 0,
                "roughnessFactor" : 0.5
            }
        },
        {
            "doubleSided" : true,
            "name" : "Material.009",
            "pbrMetallicRoughness" : {
                "baseColorTexture" : {
                    "index" : 1
                },
                "metallicFactor" : 0,
                "roughnessFactor" : 0
            }
        },
        {
            "doubleSided" : true,
            "name" : "Material.008",
            "pbrMetallicRoughness" : {
                "baseColorFactor" : [
                    0.8000000715255737,
                    0.08949447423219681,
                    0.018311770632863045,
                    1
                ],
                "metallicFactor" : 0,
                "roughnessFactor" : 0
            }
        }
    ],
    "meshes" : [
        {
            "name" : "Circle.003",
            "primitives" : [
                {
                    "attributes" : {
                        "POSITION" : 0,
                        "NORMAL" : 1,
                        "TEXCOORD_0" : 2
                    },
                    "indices" : 3,
                    "material" : 0
                },
                {
                    "attributes" : {
                        "POSITION" : 4,
                        "NORMAL" : 5,
                        "TEXCOORD_0" : 6
                    },
                    "indices" : 7,
                    "material" : 1
                },
                {
                    "attributes" : {
                        "POSITION" : 8,
                        "NORMAL" : 9,
                        "TEXCOORD_0" : 10
                    },
                    "indices" : 11,
                    "material" : 2
                }
            ]
        }
    ],
    "textures" : [
        {
            "sampler" : 0,
            "source" : 0
        },
        {
            "sampler" : 0,
            "source" : 1
        }
    ],
    "images" : [
        {
            "bufferView" : 4,
            "mimeType" : "image/png",
            "name" : "logosnormal.tif"
        },
        {
            "bufferView" : 9,
            "mimeType" : "image/png",
            "name" : "Hero Image"
        }
    ],
    "accessors" : [
        {
            "bufferView" : 0,
            "componentType" : 5126,
            "count" : 50,
            "max" : [
                2.2156195640563965,
                0,
                2.2200000286102295
            ],
            "min" : [
                -2.2156193256378174,
                0,
                -2.2200000286102295
            ],
            "type" : "VEC3"
        },
        {
            "bufferView" : 1,
            "componentType" : 5126,
            "count" : 50,
            "type" : "VEC3"
        },
        {
            "bufferView" : 2,
            "componentType" : 5126,
            "count" : 50,
            "type" : "VEC2"
        },
        {
            "bufferView" : 3,
            "componentType" : 5123,
            "count" : 144,
            "type" : "SCALAR"
        },
        {
            "bufferView" : 5,
            "componentType" : 5126,
            "count" : 50,
            "max" : [
                2.2156195640563965,
                0.2710600793361664,
                2.2200000286102295
            ],
            "min" : [
                -2.2156193256378174,
                0.2710600793361664,
                -2.2200000286102295
            ],
            "type" : "VEC3"
        },
        {
            "bufferView" : 6,
            "componentType" : 5126,
            "count" : 50,
            "type" : "VEC3"
        },
        {
            "bufferView" : 7,
            "componentType" : 5126,
            "count" : 50,
            "type" : "VEC2"
        },
        {
            "bufferView" : 8,
            "componentType" : 5123,
            "count" : 144,
            "type" : "SCALAR"
        },
        {
            "bufferView" : 10,
            "componentType" : 5126,
            "count" : 100,
            "max" : [
                2.2156195640563965,
                0.2710600793361664,
                2.2200000286102295
            ],
            "min" : [
                -2.2156193256378174,
                0,
                -2.2200000286102295
            ],
            "type" : "VEC3"
        },
        {
            "bufferView" : 11,
            "componentType" : 5126,
            "count" : 100,
            "type" : "VEC3"
        },
        {
            "bufferView" : 12,
            "componentType" : 5126,
            "count" : 100,
            "type" : "VEC2"
        },
        {
            "bufferView" : 13,
            "componentType" : 5123,
            "count" : 300,
            "type" : "SCALAR"
        }
    ],
    "bufferViews" : [
        {
            "buffer" : 0,
            "byteLength" : 600,
            "byteOffset" : 0
        },
        {
            "buffer" : 0,
            "byteLength" : 600,
            "byteOffset" : 600
        },
        {
            "buffer" : 0,
            "byteLength" : 400,
            "byteOffset" : 1200
        },
        {
            "buffer" : 0,
            "byteLength" : 288,
            "byteOffset" : 1600
        },
        {
            "buffer" : 0,
            "byteLength" : 564837,
            "byteOffset" : 1888
        },
        {
            "buffer" : 0,
            "byteLength" : 600,
            "byteOffset" : 566728
        },
        {
            "buffer" : 0,
            "byteLength" : 600,
            "byteOffset" : 567328
        },
        {
            "buffer" : 0,
            "byteLength" : 400,
            "byteOffset" : 567928
        },
        {
            "buffer" : 0,
            "byteLength" : 288,
            "byteOffset" : 568328
        },
        {
            "buffer" : 0,
            "byteLength" : 366562,
            "byteOffset" : 568616
        },
        {
            "buffer" : 0,
            "byteLength" : 1200,
            "byteOffset" : 935180
        },
        {
            "buffer" : 0,
            "byteLength" : 1200,
            "byteOffset" : 936380
        },
        {
            "buffer" : 0,
            "byteLength" : 800,
            "byteOffset" : 937580
        },
        {
            "buffer" : 0,
            "byteLength" : 600,
            "byteOffset" : 938380
        }
    ],
    "samplers" : [
        {
            "magFilter" : 9729,
            "minFilter" : 9987
        }
    ],
    "buffers" : [
        {
            "byteLength" : 938980,
            "uri" : "data:application/octet-stream;base64,"
        }
    ]
}
