<svg fill="none" xmlns="http://www.w3.org/2000/svg">
  <path d="M55 110A55 55 0 1155.1-.1 55 55 0 0155 110zM55 4.6a50.5 50.5 0 10.1 101 50.5 50.5 0 00-.1-101z" fill="#fff"/>
  <path d="M55 64.2a9.2 9.2 0 110-18.4 9.2 9.2 0 010 18.4zm0-13.8a4.6 4.6 0 100 9.2 4.6 4.6 0 000-9.2z" fill="#fff"/>
  <path d="M59.9 52.4a2.3 2.3 0 01-1.7-3.9L81 25.8a2.3 2.3 0 113.3 3.3L61.5 51.8c-.4.4-1 .6-1.6.6zM20.6 57.3h-9.1a2.3 2.3 0 110-4.6h9.1a2.3 2.3 0 110 4.6zM14.8 74a2.3 2.3 0 01-.9-4.5l8.5-3.5a2.3 2.3 0 011.7 4.3l-8.5 3.5-.8.2zM95.2 74l-.9-.2-8.4-3.5a2.3 2.3 0 011.7-4.3l8.5 3.5a2.3 2.3 0 01-.9 4.5zM98.5 57.3h-9.1a2.3 2.3 0 110-4.6h9.1a2.3 2.3 0 010 4.6zM86.8 44.1a2.3 2.3 0 01-1-4.4l8.6-3.5a2.3 2.3 0 111.7 4.3L87.6 44l-.8.1zM68.2 25.5a2.3 2.3 0 01-2.2-3.1l3.5-8.5a2.3 2.3 0 014.3 1.8L70.3 24a2.3 2.3 0 01-2.1 1.4zM55 23a2.3 2.3 0 01-2.3-2.4v-9.1a2.3 2.3 0 014.6 0v9.1A2.3 2.3 0 0155 23zM41.8 25.5a2.3 2.3 0 01-2-1.4l-3.6-8.4a2.3 2.3 0 114.3-1.8l3.5 8.5a2.3 2.3 0 01-2.2 3.1zM30.7 33c-.6 0-1.2-.2-1.6-.7l-6.5-6.5a2.3 2.3 0 013.2-3.2l6.5 6.5a2.3 2.3 0 01-1.6 3.9zM23.2 44.1l-.8-.1-8.5-3.5a2.3 2.3 0 011.8-4.3l8.4 3.5a2.3 2.3 0 01-.9 4.4zM75.6 91.7H34.4a2.3 2.3 0 01-2.3-2.3V75.6a2.3 2.3 0 012.3-2.3h41.2a2.3 2.3 0 012.3 2.3v13.8a2.3 2.3 0 01-2.3 2.3zm-39-4.6h36.7v-9.2H36.7v9.2z" fill="#fff"/>
</svg>
