<svg fill="none" viewBox='0 0 110 110' xmlns="http://www.w3.org/2000/svg">
  <path d="M107.1 25H101c-1 0-1.6.7-1.6 1.6 0 .9.7 1.6 1.6 1.6h4.5v8.4H70.4v-8.4h24.2c1 0 1.6-.7 1.6-1.6 0-1-.7-1.7-1.6-1.7H68.8c-1 0-1.6.8-1.6 1.7v11.6c0 .9.7 1.6 1.6 1.6h2.6V59L62 45.6V17.4h3.7c.9 0 1.6-.7 1.6-1.6V4.2c0-1-.7-1.7-1.6-1.7H27.4c-.9 0-1.6.8-1.6 1.7v11.6c0 .9.7 1.6 1.6 1.6h3.7v9.2c0 .9.8 1.6 1.6 1.6 1 0 1.7-.7 1.7-1.6v-9.2h24.4V46c0 .3.1.7.3 1l11.2 16.1c-12-4-22.6-1-31.3 1.7-7.3 2.2-13.2 4-18.2 1.4L34 47.1c.2-.3.3-.6.3-1V34.3c0-.9-.8-1.6-1.7-1.6-.8 0-1.6.7-1.6 1.6v11.3L3.8 85.2a14 14 0 00-.9 14.7 14 14 0 0012.5 7.6h62.3A14 14 0 0092 93.9a16.6 16.6 0 0012.6-16.1v-38h2.6c1 0 1.6-.7 1.6-1.6V26.6c0-1-.7-1.7-1.6-1.7zM29.1 14V5.8h35V14h-35zm58.3 84.3c-2 3.7-5.5 5.8-9.7 5.8H15.4c-4 0-7.7-2.2-9.6-5.8-2-3.7-1.7-8 .7-11.3L18.9 69c6.3 3.4 13.5 1.2 21-1 9.3-2.8 19.6-5.9 31.5-1v10.8c0 9.1 7.4 16.6 16.6 16.6h.6c-.1 1.3-.5 2.7-1.2 4zm13.9-20.6a13.4 13.4 0 01-26.7 0V61.2h26.7v16.6zm0-19.8H74.6V39.8h26.7V58z" fill="#fff"/>
  <path d="M29.2 76a7 7 0 100 14.1 7 7 0 000-14.1zm0 10.9a3.8 3.8 0 110-7.7 3.8 3.8 0 010 7.7zm29-.4a5.5 5.5 0 100 11 5.5 5.5 0 000-11zm0 7.7a2.2 2.2 0 112.2-2.2c0 1.2-1 2.2-2.2 2.2zm34.7-15a5.5 5.5 0 100-10.9 5.5 5.5 0 000 11zm0-7.7a2.2 2.2 0 110 4.5 2.2 2.2 0 010-4.5zM84 52.8a5.5 5.5 0 100-11 5.5 5.5 0 000 11zm0-7.7a2.2 2.2 0 110 4.5 2.2 2.2 0 010-4.5zM45 47.3c0 3.1 2.5 5.7 5.6 5.7a5.6 5.6 0 10-5.6-5.7zm5.6-2.3a2.4 2.4 0 110 4.7 2.4 2.4 0 010-4.7zm-6.7-25a5.6 5.6 0 100 11.3 5.6 5.6 0 000-11.2zm0 8c-1.3 0-2.4-1-2.4-2.3A2.4 2.4 0 1144 28z" fill="#fff"/>
</svg>
