<svg fill="none" xmlns="http://www.w3.org/2000/svg">
  <g clip-path="url(#clip0)" fill="#fff">
    <path d="M64.8 54.9c0 6-4.4 11-9.8 11-5.5 0-9.9-5-9.9-11 0-6.1 4.4-11 9.9-11 5.4 0 9.8 4.9 9.8 11z"/>
    <path d="M55 80.2a101.4 101.4 0 01-35.7-5.5l.8.2a43 43 0 01-14.4-8.7A16.2 16.2 0 010 55c0-7.3 7.1-14.5 19-19.1a99.5 99.5 0 0136-6h1.5c12.1 0 23.7 2.1 34.6 6.1l-.8-.3c5.4 2 10 4.8 14 8.4v-.1c3 2.5 5.2 6.4 5.6 11 0 7.6-8 15.3-20.8 20a99 99 0 01-34.2 5.3zM55 35h-1.5c-11.7 0-23 2-33.6 5.9l.7-.3C9.6 45 4.7 51 4.7 55s5.3 10.5 17 15a93.9 93.9 0 0033.4 5H55h2c10.9 0 21.4-1.8 31.4-5.2l-.8.2c12-4.5 17.6-11 17.6-15-.4-3-1.9-5.4-4-7-3.5-3-7.6-5.6-12-7.2l-.3-.1a95.2 95.2 0 00-34-5.5z"/>
    <path d="M32.7 110h-.2c-1.9 0-3.6-.6-5.1-1.6-5.6-3.6-7.5-14.1-5.2-28 2.9-14.4 7.5-27 13.7-38.6l-.3.6a126.5 126.5 0 0122-31.5h.2c3.7-4 8.1-7.1 13-9.4l.2-.1a12 12 0 0111.4 0c5.8 3.8 7.7 15.4 5 30.3C84.4 45.3 80 57.2 74 68l.3-.5c-6 12-13.1 22.3-21.5 31.2a44 44 0 01-13.6 9.6l-.3.1c-1.8.9-4 1.4-6.3 1.4zm4.9-66.3l2 1.3C34 55.5 29.6 67.6 27 80.5l-.2.8c-2.1 13 0 20.7 3 22.6.7.5 1.7.8 2.6.8h.3c3.9 0 10-2.8 17-9.8 8.1-8.5 15-18.4 20.3-29.3l.3-.6c5.4-10 9.7-21.4 12.3-33.5l.2-.9C85.4 16.6 83 8 80 6a8.1 8.1 0 00-7.4.4c-4.5 2.1-8.4 5-11.8 8.4A120.8 120.8 0 0040 44.5l-.3.6-2-1.4z"/>
    <path d="M77.2 110c-5.3 0-12-3.6-19-10.4a126 126 0 01-22.3-31.4l-.3-.6a133.2 133.2 0 01-13.1-36.5l-.2-.9a55.2 55.2 0 01-.6-17.9v.3c.4-4.6 2.5-8.5 5.6-11 5.9-3.9 15.8 0 25.9 10.2 8.2 8.7 15.2 18.8 20.8 30l.3.6A131.5 131.5 0 0187.5 78l.2.9a55 55 0 01.5 18.5v-.2c-.4 4.6-2.6 8.7-5.8 11.2a9 9 0 01-5 1.5h-.2zM39.6 65c6 11.8 13.2 21.8 21.5 30.5h.1C70 104.2 77 106 80.1 104c3.1-2 5.4-10.5 3-24a129 129 0 00-13-35.5l.2.5A122 122 0 0050 15.8C40.6 6.1 32.9 4 29.7 6c-2 1.8-3.2 4.4-3.3 7.3a48.9 48.9 0 00.6 16v-.2c2.7 13.5 7 25.5 13 36.3l-.3-.5z"/>
  </g>
  <defs>
    <clipPath id="clip0">
      <path fill="#fff" d="M0 0h110v110H0z"/>
    </clipPath>
  </defs>
</svg>
